<?xml version="1.0" encoding="UTF-8" standalone="no"?>
<!-- Created with Inkscape (http://www.inkscape.org/) -->

<svg
   xmlns:dc="http://purl.org/dc/elements/1.1/"
   xmlns:cc="http://creativecommons.org/ns#"
   xmlns:rdf="http://www.w3.org/1999/02/22-rdf-syntax-ns#"
   xmlns:svg="http://www.w3.org/2000/svg"
   xmlns="http://www.w3.org/2000/svg"
   xmlns:xlink="http://www.w3.org/1999/xlink"
   version="1.1"
   width="100%"
   height="259.80392"
   viewBox="-2 -100 497.05882 265"
   id="foo-nav">
  <metadata
     id="metadata39">
    <rdf:RDF>
      <cc:Work
         rdf:about="">
        <dc:format>image/svg+xml</dc:format>
        <dc:type
           rdf:resource="http://purl.org/dc/dcmitype/StillImage" />
        <dc:title></dc:title>
      </cc:Work>
    </rdf:RDF>
  </metadata>
  <filter
     height="1"
     color-interpolation-filters="sRGB"
     id="dropshadow">
    <feGaussianBlur
       id="feGaussianBlur4"
       stdDeviation="3"
       in="SourceAlpha" />
    <feMerge
       id="feMerge6">
      <feMergeNode
         id="feMergeNode8" />
      <feMergeNode
         id="feMergeNode10"
         in="SourceGraphic" />
    </feMerge>
  </filter>
  <defs
     id="defs12">
    <linearGradient
       x1="0"
       y1="0"
       x2="0"
       y2="1"
       id="verlauf1">
      <stop
         id="stop15"
         style="stop-color:#ff0000;stop-opacity:1"
         offset="0.1" />
      <stop
         id="stop17"
         style="stop-color:#440000;stop-opacity:1"
         offset="1" />
    </linearGradient>
    <linearGradient
       x1="-0.46787336"
       y1="12.823983"
       x2="-0.46787336"
       y2="200.90907"
       id="linearGradient3016"
       xlink:href="#verlauf1"
       gradientUnits="userSpaceOnUse"
       gradientTransform="scale(1.0686653,0.9357467)" />
    <linearGradient
       x1="-0.46787336"
       y1="12.823983"
       x2="-0.46787336"
       y2="200.90907"
       id="linearGradient3018"
       xlink:href="#verlauf1"
       gradientUnits="userSpaceOnUse"
       gradientTransform="scale(1.0686653,0.9357467)" />
    <linearGradient
       x1="-0.46787336"
       y1="12.823983"
       x2="-0.46787336"
       y2="200.90907"
       id="linearGradient3020"
       xlink:href="#verlauf1"
       gradientUnits="userSpaceOnUse"
       gradientTransform="scale(1.0686653,0.9357467)" />
    <linearGradient
       x1="-0.46787336"
       y1="12.823983"
       x2="-0.46787336"
       y2="200.90907"
       id="linearGradient3022"
       xlink:href="#verlauf1"
       gradientUnits="userSpaceOnUse"
       gradientTransform="scale(1.0686653,0.9357467)" />
    <linearGradient
       x1="-0.46787336"
       y1="12.823983"
       x2="-0.46787336"
       y2="200.90907"
       id="linearGradient3024"
       xlink:href="#verlauf1"
       gradientUnits="userSpaceOnUse"
       gradientTransform="scale(1.0686653,0.9357467)" />
    <linearGradient
       x1="-0.46787336"
       y1="12.823983"
       x2="-0.46787336"
       y2="200.90907"
       id="linearGradient3026"
       xlink:href="#verlauf1"
       gradientUnits="userSpaceOnUse"
       gradientTransform="scale(1.0686653,0.9357467)" />
  </defs>
  <a
     xlink:href=""
     transform="translate(-6.6,-112)"
     id="a19">
    <polygon
       points="50,187.5 0,100 50,12.5 50,12.5 150,12.5 200,100 150,187.5 "
       id="polygon21"
       style="fill:url(#linearGradient3016);stroke:url(#linearGradient3018);stroke-width:1" />
    <polyline
       points="57.5 25.625 , 142.5 25.625 , 185 100 , 142.5 174.375  ,  57.5 174.375  "
       style="fill:none;stroke:#000000;stroke-width:15.38461494"
       id="polyline23" />
  </a>
  <a
     xlink:href=""
     transform="translate(-6.5999999,-112)"
     id="a25">
    <polygon
       points="50,187.5 0,100 50,12.5 50,12.5 150,12.5 200,100 150,187.5 "
       transform="translate(153,89)"
       id="polygon27"
       style="fill:url(#linearGradient3020);stroke:url(#linearGradient3022);stroke-width:1" />
    <polyline
       points="57.5 25.625 , 142.5 25.625 , 185 100 , 142.5 174.375  ,  57.5 174.375 , 15 100 , 57.5 25.625 , 142.5 25.625 "
       style="fill:none;stroke:#000000;stroke-width:15.38461494"
       transform="translate(153,89)"
       id="polyline29" />
  </a>
  <a
     xlink:href=""
     transform="translate(-6.5999999,-112)"
     id="a31">
    <polygon
       points="50,187.5 0,100 50,12.5 50,12.5 150,12.5 200,100 150,187.5 "
       transform="translate(306,0)"
       id="polygon33"
       style="fill:url(#linearGradient3024);stroke:url(#linearGradient3026);stroke-width:1" />
    <polyline
       points=" 185 100 , 142.5 174.375  ,  57.5 174.375 , 15 100 , 57.5 25.625 , 142.5 25.625"
       style="fill:none;stroke:#000000;stroke-width:15.38461494"
       transform="translate(306,0)"
       id="polyline35" />
  </a>
</svg>
